<svg width="154" height="30" viewBox="0 0 154 30" fill="none" xmlns="http://www.w3.org/2000/svg">
<path d="M148.518 7.87001C149.018 7.03001 149.678 6.38001 150.498 5.92001C151.338 5.44001 152.328 5.20001 153.468 5.20001V8.74001H152.598C151.258 8.74001 150.238 9.08001 149.538 9.76001C148.858 10.44 148.518 11.62 148.518 13.3V22H145.098V5.47001H148.518V7.87001Z" fill="#013CC6"/>
<path d="M123.626 13.66C123.626 12 123.966 10.53 124.646 9.25001C125.346 7.97001 126.286 6.98001 127.466 6.28001C128.666 5.56001 129.986 5.20001 131.426 5.20001C132.726 5.20001 133.856 5.46001 134.816 5.98001C135.796 6.48001 136.576 7.11001 137.156 7.87001V5.47001H140.606V22H137.156V19.54C136.576 20.32 135.786 20.97 134.786 21.49C133.786 22.01 132.646 22.27 131.366 22.27C129.946 22.27 128.646 21.91 127.466 21.19C126.286 20.45 125.346 19.43 124.646 18.13C123.966 16.81 123.626 15.32 123.626 13.66ZM137.156 13.72C137.156 12.58 136.916 11.59 136.436 10.75C135.976 9.91001 135.366 9.27001 134.606 8.83001C133.846 8.39001 133.026 8.17001 132.146 8.17001C131.266 8.17001 130.446 8.39001 129.686 8.83001C128.926 9.25001 128.306 9.88001 127.826 10.72C127.366 11.54 127.136 12.52 127.136 13.66C127.136 14.8 127.366 15.8 127.826 16.66C128.306 17.52 128.926 18.18 129.686 18.64C130.466 19.08 131.286 19.3 132.146 19.3C133.026 19.3 133.846 19.08 134.606 18.64C135.366 18.2 135.976 17.56 136.436 16.72C136.916 15.86 137.156 14.86 137.156 13.72Z" fill="#013CC6"/>
<path d="M121.4 13.33C121.4 13.95 121.36 14.51 121.28 15.01H108.65C108.75 16.33 109.24 17.39 110.12 18.19C111 18.99 112.08 19.39 113.36 19.39C115.2 19.39 116.5 18.62 117.26 17.08H120.95C120.45 18.6 119.54 19.85 118.22 20.83C116.92 21.79 115.3 22.27 113.36 22.27C111.78 22.27 110.36 21.92 109.1 21.22C107.86 20.5 106.88 19.5 106.16 18.22C105.46 16.92 105.11 15.42 105.11 13.72C105.11 12.02 105.45 10.53 106.13 9.25001C106.83 7.95001 107.8 6.95001 109.04 6.25001C110.3 5.55001 111.74 5.20001 113.36 5.20001C114.92 5.20001 116.31 5.54001 117.53 6.22001C118.75 6.90001 119.7 7.86001 120.38 9.10001C121.06 10.32 121.4 11.73 121.4 13.33ZM117.83 12.25C117.81 10.99 117.36 9.98001 116.48 9.22001C115.6 8.46001 114.51 8.08001 113.21 8.08001C112.03 8.08001 111.02 8.46001 110.18 9.22001C109.34 9.96001 108.84 10.97 108.68 12.25H117.83Z" fill="#013CC6"/>
<path d="M103.694 5.47L98.5641 22H94.9641L91.6341 9.79L88.3041 22H84.7041L79.5441 5.47H83.0241L86.4741 18.76L89.9841 5.47H93.5541L96.9141 18.7L100.334 5.47H103.694Z" fill="#013CC6"/>
<path d="M74.322 8.26001V17.41C74.322 18.03 74.462 18.48 74.742 18.76C75.042 19.02 75.542 19.15 76.242 19.15H78.342V22H75.642C74.102 22 72.922 21.64 72.102 20.92C71.282 20.2 70.872 19.03 70.872 17.41V8.26001H68.922V5.47002H70.872V1.36002H74.322V5.47002H78.342V8.26001H74.322Z" fill="#013CC6"/>
<path d="M62.2384 7.87001C62.7384 7.03001 63.3984 6.38001 64.2184 5.92001C65.0584 5.44001 66.0484 5.20001 67.1884 5.20001V8.74001H66.3184C64.9784 8.74001 63.9584 9.08001 63.2584 9.76001C62.5784 10.44 62.2384 11.62 62.2384 13.3V22H58.8184V5.47001H62.2384V7.87001Z" fill="#013CC6"/>
<path d="M46.8575 22.27C45.2975 22.27 43.8875 21.92 42.6275 21.22C41.3675 20.5 40.3775 19.5 39.6575 18.22C38.9375 16.92 38.5775 15.42 38.5775 13.72C38.5775 12.04 38.9475 10.55 39.6875 9.25001C40.4275 7.95001 41.4375 6.95001 42.7175 6.25001C43.9975 5.55001 45.4275 5.20001 47.0075 5.20001C48.5875 5.20001 50.0175 5.55001 51.2975 6.25001C52.5775 6.95001 53.5875 7.95001 54.3275 9.25001C55.0675 10.55 55.4375 12.04 55.4375 13.72C55.4375 15.4 55.0575 16.89 54.2975 18.19C53.5375 19.49 52.4975 20.5 51.1775 21.22C49.8775 21.92 48.4375 22.27 46.8575 22.27ZM46.8575 19.3C47.7375 19.3 48.5575 19.09 49.3175 18.67C50.0975 18.25 50.7275 17.62 51.2075 16.78C51.6875 15.94 51.9275 14.92 51.9275 13.72C51.9275 12.52 51.6975 11.51 51.2375 10.69C50.7775 9.85001 50.1675 9.22001 49.4075 8.80001C48.6475 8.38001 47.8275 8.17001 46.9475 8.17001C46.0675 8.17001 45.2475 8.38001 44.4875 8.80001C43.7475 9.22001 43.1575 9.85001 42.7175 10.69C42.2775 11.51 42.0575 12.52 42.0575 13.72C42.0575 15.5 42.5075 16.88 43.4075 17.86C44.3275 18.82 45.4775 19.3 46.8575 19.3Z" fill="#013CC6"/>
<path d="M22.7755 7.90001C23.3555 7.14001 24.1455 6.50001 25.1455 5.98001C26.1455 5.46001 27.2755 5.20001 28.5355 5.20001C29.9755 5.20001 31.2855 5.56001 32.4655 6.28001C33.6655 6.98001 34.6055 7.97001 35.2855 9.25001C35.9655 10.53 36.3055 12 36.3055 13.66C36.3055 15.32 35.9655 16.81 35.2855 18.13C34.6055 19.43 33.6655 20.45 32.4655 21.19C31.2855 21.91 29.9755 22.27 28.5355 22.27C27.2755 22.27 26.1555 22.02 25.1755 21.52C24.1955 21 23.3955 20.36 22.7755 19.6V29.86H19.3555V5.47001H22.7755V7.90001ZM32.8255 13.66C32.8255 12.52 32.5855 11.54 32.1055 10.72C31.6455 9.88001 31.0255 9.25001 30.2455 8.83001C29.4855 8.39001 28.6655 8.17001 27.7855 8.17001C26.9255 8.17001 26.1055 8.39001 25.3255 8.83001C24.5655 9.27001 23.9455 9.91001 23.4655 10.75C23.0055 11.59 22.7755 12.58 22.7755 13.72C22.7755 14.86 23.0055 15.86 23.4655 16.72C23.9455 17.56 24.5655 18.2 25.3255 18.64C26.1055 19.08 26.9255 19.3 27.7855 19.3C28.6655 19.3 29.4855 19.08 30.2455 18.64C31.0255 18.18 31.6455 17.52 32.1055 16.66C32.5855 15.8 32.8255 14.8 32.8255 13.66Z" fill="#013CC6"/>
<path d="M8.11999 22.21C6.71999 22.21 5.45999 21.97 4.33999 21.49C3.21999 20.99 2.33999 20.29 1.69999 19.39C1.05999 18.49 0.73999 17.44 0.73999 16.24H4.39999C4.47999 17.14 4.82999 17.88 5.44999 18.46C6.08999 19.04 6.97999 19.33 8.11999 19.33C9.29999 19.33 10.22 19.05 10.88 18.49C11.54 17.91 11.87 17.17 11.87 16.27C11.87 15.57 11.66 15 11.24 14.56C10.84 14.12 10.33 13.78 9.70999 13.54C9.10999 13.3 8.26999 13.04 7.18999 12.76C5.82999 12.4 4.71999 12.04 3.85999 11.68C3.01999 11.3 2.29999 10.72 1.69999 9.94001C1.09999 9.16001 0.79999 8.12001 0.79999 6.82001C0.79999 5.62001 1.09999 4.57001 1.69999 3.67001C2.29999 2.77001 3.13999 2.08001 4.21999 1.60001C5.29999 1.12001 6.54999 0.880005 7.96999 0.880005C9.98999 0.880005 11.64 1.39 12.92 2.41C14.22 3.41 14.94 4.79001 15.08 6.55001H11.3C11.24 5.79001 10.88 5.14001 10.22 4.60001C9.55999 4.06 8.68999 3.79 7.60999 3.79C6.62999 3.79 5.82999 4.04 5.20999 4.54001C4.58999 5.04001 4.27999 5.76001 4.27999 6.70001C4.27999 7.34001 4.46999 7.87001 4.84999 8.29001C5.24999 8.69001 5.74999 9.01001 6.34999 9.25001C6.94999 9.49001 7.76999 9.75001 8.80999 10.03C10.19 10.41 11.31 10.79 12.17 11.17C13.05 11.55 13.79 12.14 14.39 12.94C15.01 13.72 15.32 14.77 15.32 16.09C15.32 17.15 15.03 18.15 14.45 19.09C13.89 20.03 13.06 20.79 11.96 21.37C10.88 21.93 9.59999 22.21 8.11999 22.21Z" fill="#013CC6"/>
</svg>
