<svg width="24" height="25" viewBox="0 0 24 25" fill="none" xmlns="http://www.w3.org/2000/svg">
<mask id="mask0_36_151" style="mask-type:alpha" maskUnits="userSpaceOnUse" x="0" y="0" width="24" height="25">
<path d="M0 0.193604H24V24.1936H0V0.193604Z" fill="#D9D9D9"/>
</mask>
<g mask="url(#mask0_36_151)">
<path d="M5 21.1936C4.45 21.1936 3.97917 20.9978 3.5875 20.6061C3.19583 20.2144 3 19.7436 3 19.1936V5.1936C3 4.6436 3.19583 4.17277 3.5875 3.7811C3.97917 3.38944 4.45 3.1936 5 3.1936H16L21 8.1936V19.1936C21 19.7436 20.8042 20.2144 20.4125 20.6061C20.0208 20.9978 19.55 21.1936 19 21.1936H5ZM5 19.1936H19V9.1936H15V5.1936H5V19.1936ZM7 17.1936H17V15.1936H7V17.1936ZM7 9.1936H12V7.1936H7V9.1936ZM7 13.1936H17V11.1936H7V13.1936Z" fill="#1C1B1F"/>
</g>
</svg>
