<svg version="1.1" id="Layer_1" xmlns="http://www.w3.org/2000/svg" xmlns:xlink="http://www.w3.org/1999/xlink" x="0px" y="0px"
	 width="100%" viewBox="0 0 553 102" enable-background="new 0 0 553 102" xml:space="preserve">
<path fill="#F8F8F8" opacity="1.000000" stroke="none" 
	d="
M531.000000,103.000000 
	C355.500000,103.000000 180.499985,102.986015 5.500058,103.093773 
	C1.750695,103.096085 0.880069,102.252403 0.900956,98.499451 
	C1.075338,67.167084 1.052411,35.833103 0.915245,4.500371 
	C0.902181,1.516152 1.518281,0.917659 4.500040,0.919136 
	C186.500000,1.009269 368.500000,1.009269 550.499939,0.919136 
	C553.481750,0.917659 554.097595,1.516186 554.084717,4.500365 
	C553.948120,36.166443 553.948059,67.833557 554.084656,99.499634 
	C554.097534,102.483810 553.500793,103.225113 550.495972,103.087769 
	C544.175903,102.798897 537.833374,103.000000 531.000000,103.000000 
z"/>
<path fill="#474749" opacity="1.000000" stroke="none" 
	d="
M41.280617,23.068516 
	C52.035126,22.505568 61.350895,24.403231 67.567924,33.684338 
	C69.405998,36.428303 72.329636,40.080414 70.443535,42.634266 
	C68.307045,45.527142 63.650333,43.462227 60.104862,43.673367 
	C58.488281,43.769634 58.222271,42.046337 57.587822,40.924114 
	C53.921333,34.438805 43.679100,31.409309 37.097118,34.920406 
	C35.155285,35.956257 33.373905,37.242645 33.470737,39.832096 
	C33.558804,42.187126 35.177288,43.256741 37.065731,44.156143 
	C42.243042,46.621922 47.983311,46.828056 53.414677,48.273899 
	C57.600235,49.388111 61.746281,50.555771 65.486000,52.821030 
	C74.695625,58.399578 75.896980,70.245842 67.981186,77.354309 
	C57.655079,86.627258 34.341415,86.051910 24.538456,76.249641 
	C23.486305,75.197571 22.499836,74.033730 21.703161,72.781593 
	C19.897831,69.944145 17.327995,65.831841 19.318556,63.714207 
	C21.528772,61.362885 26.253099,63.049702 29.880548,62.983952 
	C31.157616,62.960804 31.207439,64.299118 31.679371,65.104813 
	C36.757729,73.774780 50.262661,76.337082 58.373047,70.152901 
	C61.847588,67.503563 61.492363,63.780804 57.307487,61.375870 
	C53.654236,59.276440 49.450905,58.845818 45.376923,58.099072 
	C39.835026,57.083256 34.249863,56.322422 29.137287,53.633881 
	C23.983067,50.923443 21.000982,46.954556 20.853537,41.017643 
	C20.699274,34.806217 23.278112,30.001989 28.558475,26.869743 
	C32.289913,24.656298 36.378166,23.192604 41.280617,23.068516 
z"/>
<path fill="#464648" opacity="1.000000" stroke="none" 
	d="
M77.422523,66.999893 
	C77.430801,58.173756 77.359497,49.846230 77.505386,41.522507 
	C77.539864,39.555096 76.175323,36.028057 80.178978,36.553425 
	C83.411896,36.977654 88.748512,33.511364 89.232117,41.030910 
	C96.368301,34.586830 104.716942,35.239311 112.985588,36.500477 
	C117.665512,37.214272 121.711052,39.704849 124.744133,43.500423 
	C131.343765,51.759178 131.292770,68.256828 124.677567,76.324493 
	C117.462021,85.124321 102.904182,86.291794 88.893661,78.756203 
	C88.893661,84.840805 88.732536,90.573685 88.958191,96.291306 
	C89.080292,99.385284 88.044739,100.303650 85.003441,100.217957 
	C75.787979,99.958290 77.568687,101.054367 77.458389,92.977425 
	C77.342445,84.486336 77.425972,75.992523 77.422523,66.999893 
z"/>
<path fill="#48484A" opacity="1.000000" stroke="none" 
	d="
M400.325623,61.764679 
	C397.366211,65.954552 400.389893,68.200851 403.101227,70.147804 
	C408.699158,74.167603 418.924316,73.237396 424.022308,68.539215 
	C425.835480,66.868240 434.872681,65.493607 436.692352,66.666855 
	C438.576874,67.881920 437.296112,69.518158 436.777008,70.606880 
	C433.919403,76.600113 429.416016,80.861481 422.807861,82.428947 
	C411.861267,85.025505 401.125336,85.335144 392.557129,76.568665 
	C385.052582,68.890472 385.265076,59.191826 388.269775,49.916439 
	C391.100311,41.178638 398.432831,37.046429 407.374054,36.116337 
	C416.173798,35.200958 424.705627,35.777489 431.759521,42.144470 
	C436.228912,46.178593 437.931152,51.390232 438.553925,57.204628 
	C438.925354,60.672207 437.902344,61.864151 434.279266,61.796364 
	C423.118347,61.587559 411.950867,61.727757 400.325623,61.764679 
z"/>
<path fill="#464648" opacity="1.000000" stroke="none" 
	d="
M473.255310,36.281212 
	C476.911377,36.865040 479.362946,38.930229 481.991150,40.688240 
	C483.155518,37.087944 489.925262,34.765896 493.291412,36.648075 
	C494.612976,37.387016 494.408264,38.570545 494.409576,39.687782 
	C494.425629,53.172733 494.412903,66.657715 494.421997,80.142685 
	C494.423096,81.748093 494.311859,83.210106 492.169464,83.212372 
	C489.838837,83.214844 487.497131,83.071602 485.180206,83.250290 
	C481.788910,83.511826 483.501312,80.316681 481.997375,78.782051 
	C476.770294,83.206238 470.470184,84.150894 463.927490,83.809395 
	C451.174042,83.143707 444.528015,77.159409 442.343536,64.620613 
	C440.002289,51.181767 445.996735,39.925011 457.469025,36.801453 
	C462.469788,35.439899 467.672638,35.415676 473.255310,36.281212 
z"/>
<path fill="#474749" opacity="1.000000" stroke="none" 
	d="
M134.612579,70.099152 
	C132.577026,64.411575 132.405106,58.849033 133.457184,53.474350 
	C135.275497,44.185085 141.602234,38.748985 150.519058,36.585972 
	C155.868546,35.288311 161.494965,35.299511 166.901398,36.509716 
	C179.865707,39.411732 185.797928,48.438969 184.896790,63.402588 
	C184.238815,74.328484 175.876785,82.462822 163.875748,83.621536 
	C155.430649,84.436928 147.232758,83.863930 140.332916,78.036789 
	C137.876984,75.962685 136.021408,73.429543 134.612579,70.099152 
z"/>
<path fill="#474749" opacity="1.000000" stroke="none" 
	d="
M290.524506,73.856140 
	C291.116394,73.780098 291.281830,73.761589 291.447754,73.749084 
	C294.182831,73.542831 297.409912,73.131012 297.514954,69.921471 
	C297.620575,66.694534 294.139252,66.069862 291.651611,65.515938 
	C286.644440,64.401001 281.470428,63.999569 276.501709,62.757778 
	C271.503601,61.508636 267.214355,58.818844 265.526062,53.552238 
	C263.629883,47.637135 266.133331,41.639214 271.958588,38.898567 
	C281.753143,34.290428 291.560028,34.488617 301.046112,40.002552 
	C302.178894,40.661003 303.316376,41.495525 304.112396,42.513699 
	C306.234039,45.227547 308.785431,48.118195 307.709717,51.759361 
	C307.155731,53.634602 297.347534,51.433643 295.509125,49.108746 
	C291.944031,44.600262 283.188324,43.681961 278.739349,47.304558 
	C277.608276,48.225544 276.905701,49.277847 277.274750,50.735058 
	C277.857483,53.036282 279.861328,53.752720 281.796417,54.134575 
	C287.004669,55.162319 292.298706,55.778404 297.478058,56.922813 
	C302.978027,58.138065 308.126648,60.297356 309.802765,66.405357 
	C311.519653,72.662056 308.784058,78.179443 302.294495,80.945656 
	C292.011597,85.328804 281.600403,85.129074 271.463959,80.313805 
	C267.390686,78.378815 264.778290,75.018959 263.423126,70.617859 
	C262.728546,68.362053 263.243744,67.439476 265.566162,67.611420 
	C269.761475,67.922012 274.019684,66.372231 277.459869,71.250526 
	C280.178253,75.105278 285.578033,74.269005 290.524506,73.856140 
z"/>
<path fill="#454547" opacity="1.000000" stroke="none" 
	d="
M224.407654,37.625084 
	C229.925507,37.056881 230.958481,34.325806 230.646683,29.806633 
	C230.275131,24.421391 235.801346,21.449553 240.840256,23.943634 
	C242.405701,24.718468 242.175705,26.069801 242.215820,27.356075 
	C242.262482,28.851786 242.406525,30.375893 242.194138,31.842175 
	C241.624969,35.771706 243.464249,36.747311 247.037979,36.458664 
	C250.343323,36.191700 253.698212,36.573681 257.011627,36.362129 
	C261.147827,36.098042 260.486786,38.903648 260.454132,41.330601 
	C260.422424,43.689110 261.284882,46.576443 257.071228,46.317001 
	C253.425598,46.092529 249.747879,46.416176 246.097290,46.235691 
	C243.314011,46.098091 242.151306,47.104713 242.209534,49.916855 
	C242.319687,55.237789 242.276672,60.562248 242.267365,65.885193 
	C242.259735,70.255920 244.605057,72.214760 248.779861,72.316551 
	C250.442490,72.357094 252.106598,72.341095 253.770035,72.342949 
	C260.181976,72.350075 262.325928,75.374016 260.410522,81.524567 
	C260.039337,82.716492 259.386536,83.183189 258.313141,83.162117 
	C252.672653,83.051414 246.969788,83.923553 241.403732,82.731010 
	C234.472916,81.246063 230.937943,76.395821 230.576920,68.002144 
	C230.334061,62.356262 230.300278,56.682957 230.564743,51.040279 
	C230.736206,47.381817 229.633820,45.670895 225.423615,46.118881 
	C223.081604,43.675930 223.586243,41.010494 224.407654,37.625084 
z"/>
<path fill="#464648" opacity="1.000000" stroke="none" 
	d="
M524.335815,47.057716 
	C514.756104,49.710320 511.234070,54.194088 511.139282,63.544949 
	C511.085358,68.864418 511.012085,74.188324 511.172577,79.503433 
	C511.256012,82.267570 510.377960,83.529205 507.502380,83.257065 
	C505.854370,83.101097 504.173462,83.128387 502.519165,83.243118 
	C500.331085,83.394859 499.646027,82.435036 499.655334,80.326019 
	C499.715515,66.693779 499.710846,53.061077 499.665558,39.428734 
	C499.658813,37.398678 500.225739,36.215771 502.474091,36.402946 
	C503.134094,36.457893 503.805847,36.439007 504.467834,36.392200 
	C508.872589,36.080769 513.065063,35.993847 511.166107,43.407467 
	C515.484497,39.765472 519.598633,37.254536 524.632324,36.852436 
	C525.783020,36.760517 526.920410,36.459385 528.070557,36.411419 
	C533.565735,36.182240 535.967163,39.698429 533.959045,44.817005 
	C533.389282,46.269154 532.314941,46.174259 531.167419,46.281994 
	C529.022949,46.483322 526.884033,46.743649 524.335815,47.057716 
z"/>
<path fill="#464647" opacity="1.000000" stroke="none" 
	d="
M224.453247,36.756252 
	C224.880875,36.883286 224.848892,36.871048 224.840790,36.886154 
	C223.566589,39.150856 224.158936,41.634472 223.872070,44.375153 
	C223.696930,44.952156 223.586548,45.169529 223.238220,45.664604 
	C220.043533,46.323940 217.053619,46.538811 214.136307,47.118889 
	C205.839432,48.768639 201.429306,53.937740 201.188583,62.377007 
	C201.027267,68.031609 200.989395,73.700127 201.202042,79.350914 
	C201.320267,82.492226 200.135849,83.566513 197.160599,83.243088 
	C195.844543,83.100037 194.490768,83.117027 193.170624,83.239395 
	C190.728638,83.465729 189.590256,82.771858 189.615433,79.993973 
	C189.737595,66.513252 189.711700,53.030643 189.639374,39.549229 
	C189.626587,37.168770 190.499390,36.467911 192.839249,36.346802 
	C200.228165,35.964378 200.222794,35.860470 201.982712,43.176220 
	C208.216187,36.913967 215.852234,35.796764 224.453247,36.756252 
z"/>
<path fill="#3BBD9E" opacity="1.000000" stroke="none" 
	d="
M378.510345,75.642281 
	C376.848206,78.330978 379.084503,82.784195 374.231598,83.216270 
	C364.648743,84.069450 364.336273,83.719688 366.699890,74.481285 
	C369.653381,62.937382 372.556915,51.380646 375.533081,39.842628 
	C376.296906,36.881599 385.348236,34.586689 387.443207,36.788708 
	C388.233917,37.619785 387.845093,38.640800 387.601013,39.606606 
	C384.599365,51.483807 381.604980,63.362839 378.510345,75.642281 
z"/>
<path fill="#3BBC9E" opacity="1.000000" stroke="none" 
	d="
M330.844299,81.920471 
	C334.193787,76.452545 333.662231,70.426331 334.898682,64.836632 
	C336.687775,56.748524 337.781616,48.508617 339.343323,40.366325 
	C339.615967,38.944752 339.125671,36.537174 341.489655,36.430218 
	C344.769562,36.281826 348.184814,35.565704 351.314301,36.902336 
	C352.442352,37.384151 351.622162,38.981621 351.424194,40.108189 
	C350.276550,46.638428 349.182098,53.178005 348.164154,60.486588 
	C348.305878,62.402374 348.134216,63.500767 347.351013,64.763580 
	C346.358215,69.205902 345.250824,73.379776 344.935883,77.612625 
	C344.609619,81.996971 342.917114,83.885735 338.445618,83.248589 
	C336.340637,82.948662 334.168243,83.122040 331.585052,82.961411 
	C330.991241,82.646782 330.838776,82.451691 330.844299,81.920471 
z"/>
<path fill="#464648" opacity="1.000000" stroke="none" 
	d="
M330.841858,81.187485 
	C330.877563,81.864906 330.872437,82.147690 331.065338,82.637276 
	C319.577667,84.145966 319.616608,84.136368 316.835876,72.850052 
	C314.135834,61.891376 311.344482,50.955204 308.493835,39.620171 
	C308.197113,38.403076 308.178619,37.592796 308.982452,36.604515 
	C319.572723,36.437855 319.561707,36.440613 322.137634,46.749802 
	C324.973602,58.099731 327.832520,69.443924 330.841858,81.187485 
z"/>
<path fill="#454547" opacity="1.000000" stroke="none" 
	d="
M347.928772,60.800247 
	C348.056763,60.495121 348.031433,60.555676 348.033356,60.588715 
	C352.126129,61.193134 356.564484,58.717499 360.472168,62.417160 
	C360.714111,63.357456 360.929321,63.878120 361.097504,64.700951 
	C362.009735,69.880615 362.791504,74.800842 363.757172,79.684715 
	C364.264404,82.249954 363.596100,83.145599 360.833832,83.268456 
	C352.106964,83.656616 351.951843,83.628471 350.737213,75.114906 
	C350.338837,72.322708 349.793427,69.551483 349.232910,66.387001 
	C348.852539,64.328819 346.946075,63.097561 347.928772,60.800247 
z"/>
<path fill="#555556" opacity="1.000000" stroke="none" 
	d="
M223.221664,45.265079 
	C223.379822,42.459320 222.081909,39.626122 224.522705,37.118591 
	C224.887772,39.633160 224.942886,42.365055 224.998779,45.550209 
	C224.822723,46.045616 224.645874,46.087769 224.220901,46.016712 
	C223.798019,45.770386 223.623245,45.637268 223.221664,45.265079 
z"/>
<path fill="#B3C1BF" opacity="1.000000" stroke="none" 
	d="
M347.771240,60.782845 
	C348.537842,62.163937 349.018921,63.832748 349.325317,65.752449 
	C348.650146,65.740028 348.149719,65.476715 347.383392,65.109764 
	C346.873383,63.659939 346.850616,62.334473 347.771240,60.782845 
z"/>
<path fill="#B3B3B4" opacity="1.000000" stroke="none" 
	d="
M309.017456,36.270317 
	C309.106354,37.093273 308.881592,37.807232 308.525635,38.876190 
	C306.871948,38.044067 306.326782,36.955441 309.017456,36.270317 
z"/>
<path fill="#B3C1BF" opacity="1.000000" stroke="none" 
	d="
M361.352417,64.835922 
	C360.883789,64.446983 360.615967,63.918491 360.474640,63.099422 
	C361.534607,63.127247 361.924957,63.719608 361.352417,64.835922 
z"/>
<path fill="#454547" opacity="1.000000" stroke="none" 
	d="
M222.996933,45.255081 
	C223.288467,45.120968 223.532944,45.287868 223.850555,45.715107 
	C223.812592,45.956886 223.652374,46.010277 223.246231,46.002991 
	C223.000305,45.942314 222.999008,45.484154 222.996933,45.255081 
z"/>
<path fill="#F5F5F5" opacity="1.000000" stroke="none" 
	d="
M93.585861,49.452755 
	C98.608391,46.273682 103.797379,46.515217 108.865967,47.497322 
	C115.109505,48.707085 118.407928,54.299572 117.751488,61.616364 
	C117.210129,67.650383 112.762047,72.032547 106.731880,72.421631 
	C105.407898,72.507057 104.073906,72.422989 102.745590,72.457848 
	C97.202522,72.603279 92.361145,71.118462 90.141327,65.574661 
	C87.814369,59.763275 88.251938,54.190945 93.585861,49.452755 
z"/>
<path fill="#ECECED" opacity="1.000000" stroke="none" 
	d="
M419.652008,47.932854 
	C421.893646,49.102787 423.861450,50.009884 424.802307,52.735237 
	C416.652405,52.735237 408.731445,52.735237 400.838196,52.735237 
	C403.405975,47.147175 409.169891,45.574974 419.652008,47.932854 
z"/>
<path fill="#F5F5F5" opacity="1.000000" stroke="none" 
	d="
M469.750916,47.012238 
	C478.867615,47.927879 483.120789,52.462025 482.800507,60.509403 
	C482.494019,68.211266 477.523651,72.428581 468.729126,72.448860 
	C458.217285,72.473099 453.751678,68.403160 453.945190,58.974770 
	C454.085968,52.117222 457.927979,47.956360 464.854401,47.217243 
	C466.333954,47.059361 467.828705,47.044456 469.750916,47.012238 
z"/>
<path fill="#F5F5F5" opacity="1.000000" stroke="none" 
	d="
M151.308685,71.273331 
	C144.923660,66.822464 143.110382,61.864155 145.123413,55.245964 
	C146.695419,50.077721 150.965698,47.313690 157.909836,46.969639 
	C169.448669,46.397938 175.575302,53.371777 172.912720,63.906406 
	C171.700729,68.701698 168.348022,71.371857 163.928329,72.131363 
	C159.930359,72.818405 155.671448,73.227066 151.308685,71.273331 
z"/>
</svg>