<svg width="24" height="25" viewBox="0 0 24 25" fill="none" xmlns="http://www.w3.org/2000/svg">
<path d="M19.96 9.01859C19.29 8.27859 18.28 7.84859 16.88 7.69859V6.93859C16.88 5.56859 16.3 4.24859 15.28 3.32859C14.25 2.38859 12.91 1.94859 11.52 2.07859C9.12999 2.30859 7.11999 4.61859 7.11999 7.11859V7.69859C5.71999 7.84859 4.70999 8.27859 4.03999 9.01859C3.06999 10.0986 3.09999 11.5386 3.20999 12.5386L3.90999 18.1086C4.11999 20.0586 4.90999 22.0586 9.20999 22.0586H14.79C19.09 22.0586 19.88 20.0586 20.09 18.1186L20.79 12.5286C20.9 11.5386 20.93 10.0986 19.96 9.01859ZM11.66 3.46859C12.66 3.37859 13.61 3.68859 14.35 4.35859C15.08 5.01859 15.49 5.95859 15.49 6.93859V7.63859H8.50999V7.11859C8.50999 5.33859 9.97999 3.62859 11.66 3.46859ZM12 18.6386C9.90999 18.6386 8.20999 16.9386 8.20999 14.8486C8.20999 12.7586 9.90999 11.0586 12 11.0586C14.09 11.0586 15.79 12.7586 15.79 14.8486C15.79 16.9386 14.09 18.6386 12 18.6386Z" stroke="#131313"/>
<path d="M11.43 16.6986C11.24 16.6986 11.05 16.6286 10.9 16.4786L9.91 15.4886C9.62 15.1986 9.62 14.7186 9.91 14.4286C10.2 14.1386 10.68 14.1386 10.97 14.4286L11.45 14.9086L13.05 13.4286C13.35 13.1486 13.83 13.1686 14.11 13.4686C14.39 13.7686 14.37 14.2486 14.07 14.5286L11.94 16.4986C11.79 16.6286 11.61 16.6986 11.43 16.6986Z" stroke="#131313"/>
</svg>
