<svg width="24" height="25" viewBox="0 0 24 25" fill="none" xmlns="http://www.w3.org/2000/svg">
<mask id="mask0_254_1957" style="mask-type:alpha" maskUnits="userSpaceOnUse" x="0" y="0" width="24" height="25">
<rect y="0.351562" width="24" height="24" fill="#D9D9D9"/>
</mask>
<g mask="url(#mask0_254_1957)">
<path d="M6.5 11.3516L12 2.35156L17.5 11.3516H6.5ZM17.5 22.3516C16.25 22.3516 15.1875 21.9141 14.3125 21.0391C13.4375 20.1641 13 19.1016 13 17.8516C13 16.6016 13.4375 15.5391 14.3125 14.6641C15.1875 13.7891 16.25 13.3516 17.5 13.3516C18.75 13.3516 19.8125 13.7891 20.6875 14.6641C21.5625 15.5391 22 16.6016 22 17.8516C22 19.1016 21.5625 20.1641 20.6875 21.0391C19.8125 21.9141 18.75 22.3516 17.5 22.3516ZM3 21.8516V13.8516H11V21.8516H3ZM17.5 20.3516C18.2 20.3516 18.7917 20.1099 19.275 19.6266C19.7583 19.1432 20 18.5516 20 17.8516C20 17.1516 19.7583 16.5599 19.275 16.0766C18.7917 15.5932 18.2 15.3516 17.5 15.3516C16.8 15.3516 16.2083 15.5932 15.725 16.0766C15.2417 16.5599 15 17.1516 15 17.8516C15 18.5516 15.2417 19.1432 15.725 19.6266C16.2083 20.1099 16.8 20.3516 17.5 20.3516ZM5 19.8516H9V15.8516H5V19.8516ZM10.05 9.35156H13.95L12 6.20156L10.05 9.35156Z" fill="#1C1B1F"/>
</g>
</svg>
