<svg width="24" height="25" viewBox="0 0 24 25" fill="none" xmlns="http://www.w3.org/2000/svg">
<mask id="mask0_254_1952" style="mask-type:alpha" maskUnits="userSpaceOnUse" x="0" y="0" width="24" height="25">
<rect y="0.117188" width="24" height="24" fill="#D9D9D9"/>
</mask>
<g mask="url(#mask0_254_1952)">
<path d="M17.55 12.1172L14 8.56719L15.425 7.16719L17.55 9.29219L21.8 5.04219L23.2 6.46719L17.55 12.1172ZM9 12.1172C7.9 12.1172 6.95833 11.7255 6.175 10.9422C5.39167 10.1589 5 9.21719 5 8.11719C5 7.01719 5.39167 6.07552 6.175 5.29219C6.95833 4.50885 7.9 4.11719 9 4.11719C10.1 4.11719 11.0417 4.50885 11.825 5.29219C12.6083 6.07552 13 7.01719 13 8.11719C13 9.21719 12.6083 10.1589 11.825 10.9422C11.0417 11.7255 10.1 12.1172 9 12.1172ZM1 20.1172V17.3172C1 16.7505 1.14583 16.2297 1.4375 15.7547C1.72917 15.2797 2.11667 14.9172 2.6 14.6672C3.63333 14.1505 4.68333 13.763 5.75 13.5047C6.81667 13.2464 7.9 13.1172 9 13.1172C10.1 13.1172 11.1833 13.2464 12.25 13.5047C13.3167 13.763 14.3667 14.1505 15.4 14.6672C15.8833 14.9172 16.2708 15.2797 16.5625 15.7547C16.8542 16.2297 17 16.7505 17 17.3172V20.1172H1ZM3 18.1172H15V17.3172C15 17.1339 14.9542 16.9672 14.8625 16.8172C14.7708 16.6672 14.65 16.5505 14.5 16.4672C13.6 16.0172 12.6917 15.6797 11.775 15.4547C10.8583 15.2297 9.93333 15.1172 9 15.1172C8.06667 15.1172 7.14167 15.2297 6.225 15.4547C5.30833 15.6797 4.4 16.0172 3.5 16.4672C3.35 16.5505 3.22917 16.6672 3.1375 16.8172C3.04583 16.9672 3 17.1339 3 17.3172V18.1172ZM9 10.1172C9.55 10.1172 10.0208 9.92135 10.4125 9.52969C10.8042 9.13802 11 8.66719 11 8.11719C11 7.56719 10.8042 7.09635 10.4125 6.70469C10.0208 6.31302 9.55 6.11719 9 6.11719C8.45 6.11719 7.97917 6.31302 7.5875 6.70469C7.19583 7.09635 7 7.56719 7 8.11719C7 8.66719 7.19583 9.13802 7.5875 9.52969C7.97917 9.92135 8.45 10.1172 9 10.1172Z" fill="#0B63F8"/>
</g>
</svg>
