<svg width="24" height="25" viewBox="0 0 24 25" fill="none" xmlns="http://www.w3.org/2000/svg">
<mask id="mask0_254_1962" style="mask-type:alpha" maskUnits="userSpaceOnUse" x="0" y="0" width="24" height="25">
<rect y="0.351562" width="24" height="24" fill="#D9D9D9"/>
</mask>
<g mask="url(#mask0_254_1962)">
<path d="M16 11.3516C16.2833 11.3516 16.5208 11.2557 16.7125 11.0641C16.9042 10.8724 17 10.6349 17 10.3516C17 10.0682 16.9042 9.83073 16.7125 9.63906C16.5208 9.4474 16.2833 9.35156 16 9.35156C15.7167 9.35156 15.4792 9.4474 15.2875 9.63906C15.0958 9.83073 15 10.0682 15 10.3516C15 10.6349 15.0958 10.8724 15.2875 11.0641C15.4792 11.2557 15.7167 11.3516 16 11.3516ZM8 9.35156H13V7.35156H8V9.35156ZM4.5 21.3516C3.93333 19.4516 3.375 17.5557 2.825 15.6641C2.275 13.7724 2 11.8349 2 9.85156C2 8.31823 2.53333 7.01823 3.6 5.95156C4.66667 4.8849 5.96667 4.35156 7.5 4.35156H12.5C12.9833 3.71823 13.5708 3.22656 14.2625 2.87656C14.9542 2.52656 15.7 2.35156 16.5 2.35156C16.9167 2.35156 17.2708 2.4974 17.5625 2.78906C17.8542 3.08073 18 3.4349 18 3.85156C18 3.95156 17.9875 4.05156 17.9625 4.15156C17.9375 4.25156 17.9083 4.34323 17.875 4.42656C17.8083 4.6099 17.7458 4.7974 17.6875 4.98906C17.6292 5.18073 17.5833 5.37656 17.55 5.57656L19.825 7.85156H22V14.8266L19.175 15.7516L17.5 21.3516H12V19.3516H10V21.3516H4.5ZM6 19.3516H8V17.3516H14V19.3516H16L17.55 14.2016L20 13.3766V9.85156H19L15.5 6.35156C15.5 6.01823 15.5208 5.6974 15.5625 5.38906C15.6042 5.08073 15.6667 4.76823 15.75 4.45156C15.2667 4.5849 14.8417 4.81406 14.475 5.13906C14.1083 5.46406 13.8417 5.86823 13.675 6.35156H7.5C6.53333 6.35156 5.70833 6.69323 5.025 7.37656C4.34167 8.0599 4 8.8849 4 9.85156C4 11.4849 4.225 13.0807 4.675 14.6391C5.125 16.1974 5.56667 17.7682 6 19.3516Z" fill="#1C1B1F"/>
</g>
</svg>
