<svg width="24" height="25" viewBox="0 0 24 25" fill="none" xmlns="http://www.w3.org/2000/svg">
<path fill-rule="evenodd" clip-rule="evenodd" d="M11.5 3.64648C6.66751 3.64648 2.75 7.56399 2.75 12.3965C2.75 17.229 6.66751 21.1465 11.5 21.1465C16.3325 21.1465 20.25 17.229 20.25 12.3965C20.25 7.56399 16.3325 3.64648 11.5 3.64648ZM1.25 12.3965C1.25 6.73557 5.83908 2.14648 11.5 2.14648C17.1609 2.14648 21.75 6.73557 21.75 12.3965C21.75 18.0574 17.1609 22.6465 11.5 22.6465C5.83908 22.6465 1.25 18.0574 1.25 12.3965Z" fill="#ADA7A7"/>
<path fill-rule="evenodd" clip-rule="evenodd" d="M19.4697 20.3662C19.7626 20.0733 20.2374 20.0733 20.5303 20.3662L22.5303 22.3662C22.8232 22.659 22.8232 23.1339 22.5303 23.4268C22.2374 23.7197 21.7626 23.7197 21.4697 23.4268L19.4697 21.4268C19.1768 21.1339 19.1768 20.659 19.4697 20.3662Z" fill="#ADA7A7"/>
</svg>
