<svg width="24" height="25" viewBox="0 0 24 25" fill="none" xmlns="http://www.w3.org/2000/svg">
<mask id="mask0_254_1939" style="mask-type:alpha" maskUnits="userSpaceOnUse" x="0" y="0" width="24" height="25">
<rect y="0.0585938" width="24" height="24" fill="#D9D9D9"/>
</mask>
<g mask="url(#mask0_254_1939)">
<path d="M7 22.0586C6.45 22.0586 5.97917 21.8628 5.5875 21.4711C5.19583 21.0794 5 20.6086 5 20.0586C5 19.5086 5.19583 19.0378 5.5875 18.6461C5.97917 18.2544 6.45 18.0586 7 18.0586C7.55 18.0586 8.02083 18.2544 8.4125 18.6461C8.80417 19.0378 9 19.5086 9 20.0586C9 20.6086 8.80417 21.0794 8.4125 21.4711C8.02083 21.8628 7.55 22.0586 7 22.0586ZM17 22.0586C16.45 22.0586 15.9792 21.8628 15.5875 21.4711C15.1958 21.0794 15 20.6086 15 20.0586C15 19.5086 15.1958 19.0378 15.5875 18.6461C15.9792 18.2544 16.45 18.0586 17 18.0586C17.55 18.0586 18.0208 18.2544 18.4125 18.6461C18.8042 19.0378 19 19.5086 19 20.0586C19 20.6086 18.8042 21.0794 18.4125 21.4711C18.0208 21.8628 17.55 22.0586 17 22.0586ZM6.15 6.05859L8.55 11.0586H15.55L18.3 6.05859H6.15ZM5.2 4.05859H19.95C20.3333 4.05859 20.625 4.22943 20.825 4.57109C21.025 4.91276 21.0333 5.25859 20.85 5.60859L17.3 12.0086C17.1167 12.3419 16.8708 12.6003 16.5625 12.7836C16.2542 12.9669 15.9167 13.0586 15.55 13.0586H8.1L7 15.0586H19V17.0586H7C6.25 17.0586 5.68333 16.7294 5.3 16.0711C4.91667 15.4128 4.9 14.7586 5.25 14.1086L6.6 11.6586L3 4.05859H1V2.05859H4.25L5.2 4.05859Z" fill="#1C1B1F"/>
</g>
</svg>
