<svg width="25" height="24" viewBox="0 0 25 24" fill="none" xmlns="http://www.w3.org/2000/svg">
<g id="account_circle">
<mask id="mask0_268_1352" style="mask-type:alpha" maskUnits="userSpaceOnUse" x="0" y="-1" width="25" height="25">
<rect id="Bounding box" x="0.75293" y="-0.000976562" width="24" height="24" fill="#D9D9D9"/>
</mask>
<g mask="url(#mask0_268_1352)">
<path id="account_circle_2" d="M6.60293 17.099C7.45293 16.449 8.40293 15.9365 9.45293 15.5615C10.5029 15.1865 11.6029 14.999 12.7529 14.999C13.9029 14.999 15.0029 15.1865 16.0529 15.5615C17.1029 15.9365 18.0529 16.449 18.9029 17.099C19.4863 16.4157 19.9404 15.6407 20.2654 14.774C20.5904 13.9074 20.7529 12.9824 20.7529 11.999C20.7529 9.78236 19.9738 7.89486 18.4154 6.33652C16.8571 4.77819 14.9696 3.99902 12.7529 3.99902C10.5363 3.99902 8.64876 4.77819 7.09043 6.33652C5.5321 7.89486 4.75293 9.78236 4.75293 11.999C4.75293 12.9824 4.91543 13.9074 5.24043 14.774C5.56543 15.6407 6.0196 16.4157 6.60293 17.099ZM12.7529 12.999C11.7696 12.999 10.9404 12.6615 10.2654 11.9865C9.59043 11.3115 9.25293 10.4824 9.25293 9.49902C9.25293 8.51569 9.59043 7.68652 10.2654 7.01152C10.9404 6.33652 11.7696 5.99902 12.7529 5.99902C13.7363 5.99902 14.5654 6.33652 15.2404 7.01152C15.9154 7.68652 16.2529 8.51569 16.2529 9.49902C16.2529 10.4824 15.9154 11.3115 15.2404 11.9865C14.5654 12.6615 13.7363 12.999 12.7529 12.999ZM12.7529 21.999C11.3696 21.999 10.0696 21.7365 8.85293 21.2115C7.63626 20.6865 6.57793 19.974 5.67793 19.074C4.77793 18.174 4.06543 17.1157 3.54043 15.899C3.01543 14.6824 2.75293 13.3824 2.75293 11.999C2.75293 10.6157 3.01543 9.31569 3.54043 8.09902C4.06543 6.88236 4.77793 5.82402 5.67793 4.92402C6.57793 4.02402 7.63626 3.31152 8.85293 2.78652C10.0696 2.26152 11.3696 1.99902 12.7529 1.99902C14.1363 1.99902 15.4363 2.26152 16.6529 2.78652C17.8696 3.31152 18.9279 4.02402 19.8279 4.92402C20.7279 5.82402 21.4404 6.88236 21.9654 8.09902C22.4904 9.31569 22.7529 10.6157 22.7529 11.999C22.7529 13.3824 22.4904 14.6824 21.9654 15.899C21.4404 17.1157 20.7279 18.174 19.8279 19.074C18.9279 19.974 17.8696 20.6865 16.6529 21.2115C15.4363 21.7365 14.1363 21.999 12.7529 21.999ZM12.7529 19.999C13.6363 19.999 14.4696 19.8699 15.2529 19.6115C16.0363 19.3532 16.7529 18.9824 17.4029 18.499C16.7529 18.0157 16.0363 17.6449 15.2529 17.3865C14.4696 17.1282 13.6363 16.999 12.7529 16.999C11.8696 16.999 11.0363 17.1282 10.2529 17.3865C9.4696 17.6449 8.75293 18.0157 8.10293 18.499C8.75293 18.9824 9.4696 19.3532 10.2529 19.6115C11.0363 19.8699 11.8696 19.999 12.7529 19.999ZM12.7529 10.999C13.1863 10.999 13.5446 10.8574 13.8279 10.574C14.1113 10.2907 14.2529 9.93236 14.2529 9.49902C14.2529 9.06569 14.1113 8.70736 13.8279 8.42402C13.5446 8.14069 13.1863 7.99902 12.7529 7.99902C12.3196 7.99902 11.9613 8.14069 11.6779 8.42402C11.3946 8.70736 11.2529 9.06569 11.2529 9.49902C11.2529 9.93236 11.3946 10.2907 11.6779 10.574C11.9613 10.8574 12.3196 10.999 12.7529 10.999Z" fill="white"/>
</g>
</g>
</svg>
