<svg width="19" height="22" viewBox="0 0 19 22" fill="none" xmlns="http://www.w3.org/2000/svg">
<path id="Vector" d="M18.0178 18.4929L16.4885 6.02832C16.4428 5.80332 16.2635 5.62402 16.0385 5.62402H12.7531V4.36366C12.7531 1.7533 11.3135 -0.000976562 9.15313 -0.000976562C6.99277 -0.000976562 5.55313 1.7533 5.55313 4.36366V5.62402H1.99885C1.77385 5.62402 1.59455 5.80332 1.54885 6.02832L0.0195675 18.4929C-0.0700815 19.1221 0.154918 19.7971 0.559207 20.2471C0.963505 20.7429 1.59457 21.0118 2.22385 21.0118H15.7697C16.399 21.0118 17.0301 20.7411 17.4344 20.2471C17.8826 19.7989 18.1076 19.1239 18.018 18.4929H18.0178ZM6.45322 4.40742C6.45322 2.7867 7.17394 0.942781 9.15322 0.942781C11.1325 0.942781 11.8532 2.7885 11.8532 4.40742V5.66778H6.45322V4.40742ZM16.8032 19.6633C16.5325 19.934 16.1739 20.1133 15.8136 20.1133H2.22403C1.81973 20.1133 1.45939 19.934 1.23439 19.6633C1.00939 19.3926 0.874037 18.9883 0.919739 18.584L2.40334 6.56769H15.6324L17.1178 18.6281C17.1635 18.9885 17.0282 19.3928 16.8032 19.6635L16.8032 19.6633Z" fill="white"/>
</svg>
