<svg width="32" height="32" viewBox="0 0 32 32" fill="none" xmlns="http://www.w3.org/2000/svg">
<path d="M16 29C23.1797 29 29 23.1797 29 16C29 8.8203 23.1797 3 16 3C8.8203 3 3 8.8203 3 16C3 23.1797 8.8203 29 16 29Z" fill="black"/>
<path d="M6.94666 25.311C9.28932 27.5896 12.4813 29.0003 16 29.0003C19.5187 29.0003 22.7107 27.5896 25.0533 25.311C24.3893 22.7536 22.5213 20.6336 20.0187 19.5216C21.42 18.359 22.3333 16.627 22.3333 14.6683C22.3333 11.1763 19.492 8.33496 16 8.33496C12.508 8.33496 9.66666 11.1763 9.66666 14.6683C9.66666 16.627 10.58 18.359 11.9813 19.5216C9.47866 20.6336 7.61066 22.7536 6.94666 25.311Z" fill="white"/>
</svg>
