<svg width="22" height="22" viewBox="0 0 22 22" fill="none" xmlns="http://www.w3.org/2000/svg">
<path fill-rule="evenodd" clip-rule="evenodd" d="M20.7031 21.999C21.4626 21.999 22 21.4204 22 20.6797C22 20.3325 21.8832 19.9969 21.6261 19.7539L16.1232 14.2915C17.2799 12.787 17.9692 10.9238 17.9692 8.89855C17.9692 4.00323 13.9267 -0.000976562 8.9846 -0.000976562C4.05417 -0.000976562 0 3.99166 0 8.89855C0 13.7939 4.04249 17.7981 8.9846 17.7981C10.9357 17.7981 12.735 17.1731 14.2071 16.1316L19.7451 21.6171C20.0021 21.8717 20.3409 21.999 20.7031 21.999ZM8.98459 15.8774C5.12904 15.8774 1.93945 12.718 1.93945 8.89896C1.93945 5.07992 5.12904 1.92053 8.98459 1.92053C12.8401 1.92053 16.0297 5.07992 16.0297 8.89896C16.0297 12.718 12.8401 15.8774 8.98459 15.8774Z" fill="white"/>
</svg>
